<?xml version="1.0" encoding="utf-8"?>
<!-- Generator: Adobe Illustrator 16.0.0, SVG Export Plug-In . SVG Version: 6.00 Build 0)  -->
<!DOCTYPE svg PUBLIC "-//W3C//DTD SVG 1.1//EN" "http://www.w3.org/Graphics/SVG/1.1/DTD/svg11.dtd">
<svg version="1.1" id="Layer_1" xmlns="http://www.w3.org/2000/svg" xmlns:xlink="http://www.w3.org/1999/xlink" x="0px" y="0px"
	 width="500px" height="500px" viewBox="0 0 500 500" enable-background="new 0 0 500 500" xml:space="preserve">
<g>
	<path d="M195.338,286.13h-16.438l-21.364-24.492h-13.291v24.492H130.42v-73.396c11.628,0,23.237,0.103,34.865,0.103
		c17.279,0.107,26.391,11.618,26.391,24.291c0,10.056-4.598,20.207-18.539,23.046l22.201,25.027V286.13z M144.246,225.719v23.45
		h21.04c8.795,0,12.564-5.862,12.564-11.726c0-5.86-3.869-11.724-12.564-11.724H144.246z"/>
	<path d="M213.965,219.963c0,9.941-15.074,9.941-15.074,0C198.891,210.012,213.965,210.012,213.965,219.963z M200.047,234.3v51.83
		h12.769V234.3H200.047z"/>
	<path d="M258.683,286.13v-27.637c0-6.807-3.549-12.988-10.581-12.988c-6.887,0-10.988,6.181-10.988,12.988v27.637h-12.775v-51.724
		h11.82l0.955,6.288c2.711-5.236,8.713-7.125,13.625-7.125c6.153,0,12.34,2.519,15.274,9.631c4.607-7.326,10.58-9.419,17.275-9.419
		c14.684,0,21.873,9.007,21.873,24.501v27.849h-12.746v-27.849c0-6.805-2.854-12.564-9.738-12.564
		c-6.928,0-11.211,5.97-11.211,12.776v27.637H258.683z"/>
	<path d="M329.04,264.877c0.824,6.38,6.38,10.989,15.383,10.989c4.707,0,10.913-1.771,13.847-4.808l8.14,8.059
		c-5.432,5.658-14.35,8.383-22.196,8.383c-17.801,0-28.358-10.995-28.358-27.542c0-15.706,10.688-27.018,27.413-27.018
		c17.276,0,28.087,10.683,26.071,31.937H329.04z M357.101,254.308c-0.817-6.711-6.082-10.056-13.41-10.056
		c-6.887,0-12.537,3.344-14.429,10.056H357.101z"/>
</g>
</svg>
