<?xml version="1.0" encoding="utf-8"?>
<!-- Generator: Adobe Illustrator 16.0.0, SVG Export Plug-In . SVG Version: 6.00 Build 0)  -->
<!DOCTYPE svg PUBLIC "-//W3C//DTD SVG 1.1//EN" "http://www.w3.org/Graphics/SVG/1.1/DTD/svg11.dtd">
<svg version="1.1" id="Layer_1" xmlns="http://www.w3.org/2000/svg" xmlns:xlink="http://www.w3.org/1999/xlink" x="0px" y="0px"
	 width="500px" height="500px" viewBox="0 0 500 500" enable-background="new 0 0 500 500" xml:space="preserve">
<g>
	<path d="M184.405,295.855h-19.725l-25.638-29.391h-15.949v29.391h-16.59V207.78c13.953,0,27.885,0.123,41.838,0.123
		c20.735,0.129,31.669,13.942,31.669,29.149c0,12.067-5.517,24.249-22.247,27.655l26.642,30.033V295.855z M123.094,223.362v28.14
		h25.248c10.555,0,15.078-7.034,15.078-14.07c0-7.033-4.644-14.069-15.078-14.069H123.094z"/>
	<path d="M206.758,216.456c0,11.93-18.089,11.93-18.089,0C188.669,204.515,206.758,204.515,206.758,216.456z M190.057,233.66v62.195
		h15.322V233.66H190.057z"/>
	<path d="M260.418,295.855v-33.164c0-8.168-4.258-15.585-12.696-15.585c-8.264,0-13.186,7.417-13.186,15.585v33.164h-15.33v-62.068
		h14.184l1.146,7.545c3.253-6.283,10.455-8.551,16.351-8.551c7.383,0,14.809,3.022,18.328,11.558
		c5.529-8.791,12.695-11.303,20.73-11.303c17.621,0,26.248,10.809,26.248,29.401v33.418h-15.295v-33.418
		c0-8.166-3.426-15.077-11.688-15.077c-8.312,0-13.453,7.163-13.453,15.331v33.164H260.418z"/>
	<path d="M344.848,270.353c0.988,7.655,7.656,13.187,18.459,13.187c5.648,0,13.096-2.124,16.617-5.769l9.768,9.67
		c-6.52,6.79-17.221,10.06-26.637,10.06c-21.361,0-34.029-13.194-34.029-33.051c0-18.847,12.824-32.421,32.895-32.421
		c20.732,0,33.705,12.819,31.287,38.324H344.848z M378.52,257.669c-0.98-8.054-7.297-12.066-16.092-12.066
		c-8.264,0-15.045,4.013-17.314,12.066H378.52z"/>
</g>
<g>
	<path d="M324.947,209.142c0,1.768-0.852,3.469-2.979,4.417c2.684,0.817,3.666,3.664,3.666,5.104c0,5.105-3.828,6.741-8.572,6.741
		c-3.631,0-7.23,0-10.861,0V202.5c3.598,0,7.23,0,10.861,0C321.578,202.5,324.947,204.528,324.947,209.142z M310.451,211.694h6.611
		c2.715,0,3.6-1.144,3.6-2.453c0-1.047-0.852-2.813-3.6-2.813h-6.611V211.694z M310.451,221.379h6.611
		c1.766,0,4.287-0.589,4.287-2.749c0-2.062-2.521-3.141-4.287-3.141h-6.611V221.379z"/>
	<path d="M345.77,225.403h-17.146c0-7.623,0-15.28,0-22.903h17.146v4.188H332.91v5.269h12.402v4.024H332.91v5.17h12.859V225.403z"/>
	<path d="M356.383,206.427h-7.266V202.5c6.609,0,12.203,0,18.844,0v3.927h-7.262v18.976h-4.316V206.427z"/>
	<path d="M386.854,221.084h-11.975l-1.965,4.319h-4.678L378.51,202.5h4.709l10.277,22.903h-4.715L386.854,221.084z M380.863,207.31
		l-4.25,9.751h8.506L380.863,207.31z"/>
</g>
</svg>
